<svg width="71" height="43" viewBox="0 0 71 43" fill="none" xmlns="http://www.w3.org/2000/svg">
<path d="M15.9573 17.5855C15.1768 17.5855 14.4278 17.6809 13.6823 17.7679C13.9238 17.1168 14.1723 16.4544 14.5713 15.8594C14.9703 14.995 15.5933 14.2456 16.2128 13.4907C16.7308 12.6739 17.6443 12.121 18.3163 11.4222C19.0198 10.743 19.9788 10.2911 20.7383 9.72701C21.4838 9.13763 22.4603 8.84293 23.2373 8.42756C24.0493 8.05428 24.7563 7.64171 25.5123 7.44524L27.3988 6.82218L29.0578 6.26928L27.3603 0.830078L25.2708 1.23423C24.6023 1.36894 23.7868 1.52611 22.8593 1.71416C21.9108 1.85449 20.8993 2.23899 19.7723 2.58982C18.6593 2.98836 17.3713 3.25779 16.1743 3.8977C14.9703 4.50954 13.5808 5.02034 12.3558 5.83987C11.1693 6.68465 9.73779 7.41718 8.68079 8.49211C7.52579 9.49687 6.3848 10.5522 5.4993 11.7534C4.4738 12.8985 3.7773 14.1558 3.0423 15.3992C2.3773 16.6425 1.8418 17.9139 1.4043 19.1488C0.574796 21.6242 0.203795 23.9761 0.0602954 25.9885C-0.0587046 28.0036 0.0112954 29.6792 0.158295 30.8916C0.210795 31.4642 0.308796 32.0199 0.378796 32.4044L0.466295 32.8759L0.557295 32.859C1.17981 35.1909 2.61286 37.3337 4.69067 39.0397C6.76848 40.7457 9.40614 41.9451 12.2985 42.4992C15.1909 43.0534 18.2199 42.9395 21.0349 42.1709C23.85 41.4023 26.3362 40.0103 28.2059 38.1559C30.0756 36.3015 31.2525 34.0606 31.6003 31.6923C31.9481 29.324 31.4526 26.9252 30.1713 24.7733C28.8899 22.6214 26.875 20.8043 24.3596 19.5323C21.8442 18.2603 18.9311 17.5853 15.9573 17.5855ZM54.4573 17.5855C53.6768 17.5855 52.9278 17.6809 52.1823 17.7679C52.4238 17.1168 52.6723 16.4544 53.0713 15.8594C53.4703 14.995 54.0933 14.2456 54.7128 13.4907C55.2308 12.6739 56.1443 12.121 56.8163 11.4222C57.5198 10.743 58.4788 10.2911 59.2383 9.72701C59.9838 9.13763 60.9603 8.84293 61.7373 8.42756C62.5493 8.05428 63.2563 7.64171 64.0123 7.44524L65.8988 6.82218L67.5578 6.26928L65.8603 0.830078L63.7708 1.23423C63.1023 1.36894 62.2868 1.52611 61.3593 1.71416C60.4108 1.85449 59.3993 2.23899 58.2723 2.58982C57.1628 2.99116 55.8713 3.25779 54.6743 3.9005C53.4703 4.51234 52.0808 5.02314 50.8558 5.84267C49.6693 6.68746 48.2378 7.41998 47.1808 8.49211C46.0258 9.49687 44.8848 10.5522 43.9993 11.7534C42.9738 12.8985 42.2773 14.1558 41.5423 15.3992C40.8773 16.6425 40.3418 17.9139 39.9043 19.1488C39.0748 21.6242 38.7038 23.9761 38.5603 25.9885C38.4413 28.0036 38.5113 29.6792 38.6583 30.8916C38.7108 31.4642 38.8088 32.0199 38.8788 32.4044L38.9663 32.8759L39.0573 32.859C39.6798 35.1909 41.1129 37.3337 43.1907 39.0397C45.2685 40.7457 47.9061 41.9451 50.7985 42.4992C53.6909 43.0534 56.7198 42.9395 59.5349 42.1709C62.35 41.4023 64.8362 40.0103 66.7059 38.1559C68.5756 36.3015 69.7524 34.0606 70.1003 31.6923C70.4481 29.324 69.9526 26.9252 68.6713 24.7733C67.3899 22.6214 65.375 20.8043 62.8596 19.5323C60.3442 18.2603 57.4311 17.5853 54.4573 17.5855Z" fill="#CCCCCC"/>
</svg>
